# xmcd
#
# Track frame offsets:
#	182
#	11785
#	26737
#	38537
#	50855
#	62482
#	74480
#	87575
#	101907
#	111505
#
# Disc length: 1626
#
# Revision: 3
# Processed by: cddbd v1.5.1PL0 Copyright (c) Steve Scherf et al.
# Submitted via: audiograbber 1.80
# Normalized: r2:DSETVAR1
#
DISCID=9106580a
DTITLE=Various Artist - The 101 Greatest Country Hits Vol. 6:  Timeless Country
DYEAR=1900
DGENRE=
TTITLE0=Johnny Horton - The Battle of New Orleans
TTITLE1=Slim Whitman - Indian Love Call
TTITLE2=Tennessee Ernie Ford - Sixteen Tons
TTITLE3=Hank Williams - Your Cheatin' Heart
TTITLE4=Wilma Lee and Stoney Cooper - Big Midnight Special
TTITLE5=Johnny Cash - Ring of Fire
TTITLE6=Carl and Pearl Butler - Don't Let Me Cross Over
TTITLE7=Tex Ritter - I Dreamed of a Hillbilly Heaven
TTITLE8=Charlie Louvin - I Don't Beleive You've Met My Baby
TTITLE9=Lester Flatt and Earl Scruggs - Foggy Mountain Breakdown
EXTD=
EXTT0=JOHNNY HORTON
EXTT1=SLIM WHITMAN
EXTT2=TENNESSEE ERNIE FORD
EXTT3=HANK WILLIAMS  
EXTT4=WILMA LEE and STONEY COOPER
EXTT5=JOHNNY CASH
EXTT6=CARL and PEARL BUTLER
EXTT7=TEX RITTER
EXTT8=CHARLIE LOUVIN
EXTT9=LESTER FLATT and EARL SCRUGGS
PLAYORDER=
